<svg width="513" height="513" viewBox="0 0 513 513" fill="none" xmlns="http://www.w3.org/2000/svg">
<mask id="mask0" mask-type="alpha" maskUnits="userSpaceOnUse" x="0" y="0" width="513" height="513">
<rect x="0.543945" y="0.0456543" width="512" height="512" rx="64" fill="url(#paint0_linear)"/>
</mask>
<g mask="url(#mask0)">
<rect x="0.543945" y="0.0456543" width="512" height="512" fill="url(#paint1_linear)"/>
<rect x="-174.548" y="230.278" width="700.441" height="281.55" transform="rotate(-35 -174.548 230.278)" fill="white" fill-opacity="0.2"/>
<rect x="-18.0566" y="213.073" width="386.014" height="164.285" transform="rotate(55 -18.0566 213.073)" fill="white" fill-opacity="0.2"/>
<g filter="url(#filter0_d)">
<path d="M80.1739 316.136V295.806L133.944 260.846V260.086L80.1739 225.126V204.796L152.374 252.676V268.256L80.1739 316.136Z" fill="white"/>
</g>
<g filter="url(#filter1_d)">
<path d="M233.034 323.546V230.256H249.944L251.654 242.036H252.224C254.251 237.982 256.847 234.626 260.014 231.966C263.181 229.306 267.487 227.976 272.934 227.976C281.674 227.976 287.311 233.169 289.844 243.556C291.997 238.996 294.721 235.259 298.014 232.346C301.307 229.432 305.677 227.976 311.124 227.976C317.711 227.976 322.777 230.572 326.324 235.766C329.997 240.832 331.834 248.052 331.834 257.426V323.546H310.744V258.946C310.744 250.712 308.274 246.596 303.334 246.596C300.801 246.596 298.647 247.609 296.874 249.636C295.227 251.536 293.454 254.449 291.554 258.376V323.546H273.314V258.946C273.314 254.892 272.744 251.852 271.604 249.826C270.464 247.672 268.564 246.596 265.904 246.596C263.371 246.596 261.217 247.609 259.444 249.636C257.797 251.536 256.087 254.449 254.314 258.376V323.546H233.034ZM349.62 352.426V335.326H440.82V352.426H349.62Z" fill="white"/>
</g>
</g>
<defs>
<filter id="filter0_d" x="5.17383" y="129.796" width="222.2" height="261.34" filterUnits="userSpaceOnUse" color-interpolation-filters="sRGB">
<feFlood flood-opacity="0" result="BackgroundImageFix"/>
<feColorMatrix in="SourceAlpha" type="matrix" values="0 0 0 0 0 0 0 0 0 0 0 0 0 0 0 0 0 0 127 0"/>
<feOffset/>
<feGaussianBlur stdDeviation="37.5"/>
<feColorMatrix type="matrix" values="0 0 0 0 0 0 0 0 0 0 0 0 0 0 0 0 0 0 0.25 0"/>
<feBlend mode="normal" in2="BackgroundImageFix" result="effect1_dropShadow"/>
<feBlend mode="normal" in="SourceGraphic" in2="effect1_dropShadow" result="shape"/>
</filter>
<filter id="filter1_d" x="158.034" y="152.976" width="357.786" height="274.45" filterUnits="userSpaceOnUse" color-interpolation-filters="sRGB">
<feFlood flood-opacity="0" result="BackgroundImageFix"/>
<feColorMatrix in="SourceAlpha" type="matrix" values="0 0 0 0 0 0 0 0 0 0 0 0 0 0 0 0 0 0 127 0"/>
<feOffset/>
<feGaussianBlur stdDeviation="37.5"/>
<feColorMatrix type="matrix" values="0 0 0 0 0 0 0 0 0 0 0 0 0 0 0 0 0 0 0.25 0"/>
<feBlend mode="normal" in2="BackgroundImageFix" result="effect1_dropShadow"/>
<feBlend mode="normal" in="SourceGraphic" in2="effect1_dropShadow" result="shape"/>
</filter>
<linearGradient id="paint0_linear" x1="0.543953" y1="383.046" x2="512.544" y2="134.046" gradientUnits="userSpaceOnUse">
<stop stop-color="#C96ED0"/>
<stop offset="1" stop-color="#90E0FF"/>
</linearGradient>
<linearGradient id="paint1_linear" x1="0.543953" y1="383.046" x2="512.544" y2="134.046" gradientUnits="userSpaceOnUse">
<stop stop-color="#C96ED0"/>
<stop offset="1" stop-color="#90E0FF"/>
</linearGradient>
</defs>
</svg>
